<?xml version="1.0" encoding="UTF-8"?>
<svg width="74px" height="21px" viewBox="0 0 74 21" version="1.1" xmlns="http://www.w3.org/2000/svg" xmlns:xlink="http://www.w3.org/1999/xlink">
    <title>Equifax_Logo Ticker</title>
    <g id="Symbols" stroke="none" stroke-width="1" fill="none" fill-rule="evenodd">
        <g id="Footer/Desktop/Phase-1" transform="translate(-64.000000, -115.000000)" fill="#FFFFFF">
            <g id="Equifax_Logo-Ticker" transform="translate(64.000000, 114.000000)">
                <path d="M22,1.57142857 L21.1817462,5.59915773 L11.5237404,5.59915773 L10.7968874,8.96850808 L19.2231601,8.96850808 L18.3570298,12.9500614 L9.91624901,12.9500614 L8.98918491,17.2980426 L18.9184912,17.2980426 L18.0465576,21.5328185 L0,21.5328185 L4.44091269,1.57142857 L22,1.57142857 Z M41.7791517,1.75415955 L40.8514164,5.61231577 L31.6096213,5.61231577 L30.7287576,9.24313118 L38.6161238,9.24313118 L37.7837481,13.0299323 L29.9804276,13.0299323 L28.0441438,21.4680933 L20,21.4680933 L24.2329943,1.75415955 L41.7791517,1.75415955 Z M52.7172206,1.75415955 L55.8301443,6.77225177 L60.8648053,1.75415955 L68.7812643,1.75415955 L58.5034442,10.9058721 L65.2125543,21.4680933 L55.2499056,21.4680933 L51.8896937,15.5821233 L46.3103518,21.4680933 L38,21.4680933 L42.2664603,17.7543068 L48.8139441,11.6509526 L42.3892964,1.75415955 L52.7172206,1.75415955 Z M71.8083466,1.57142857 C73.0286256,1.57142857 74,2.57703832 74,3.83488022 C74,5.10931634 73.0286256,6.10662899 71.8002653,6.10662899 C70.57837,6.10662899 69.5876004,5.10931634 69.5876004,3.83488022 C69.5876004,2.57703832 70.57837,1.57142857 71.8002653,1.57142857 L71.8083466,1.57142857 Z M71.8083466,1.92322604 L71.8002653,1.92322604 C70.817577,1.92322604 70.0175266,2.77782839 70.0175266,3.83488022 C70.0175266,4.9101857 70.817577,5.75483152 71.8083466,5.75483152 C72.8023487,5.76478805 73.5959341,4.9101857 73.5959341,3.84483676 C73.5959341,2.77782839 72.8023487,1.92322604 71.8083466,1.92322604 Z M71.6903594,2.56542237 C72.0701813,2.56542237 72.3174696,2.64839347 72.4629333,2.75791532 C72.6116296,2.8690966 72.6924428,3.04001707 72.6924428,3.28229269 C72.6924428,3.61417709 72.4726309,3.81330774 72.2075637,3.89461942 L72.2075637,3.91453248 C72.4225268,3.95435861 72.5728393,4.1568081 72.6213272,4.52851863 C72.6795127,4.92014223 72.7409307,5.07114964 72.7813373,5.15246132 L72.3643413,5.15246132 C72.307772,5.07114964 72.2447378,4.83883055 72.1978661,4.50694615 C72.1348318,4.18667769 71.9796705,4.06719931 71.6628829,4.06719931 L71.3832693,4.06719931 L71.3832693,5.15246132 L70.9856684,5.15246132 L70.9856684,2.62848041 C71.1941664,2.59695139 71.3929669,2.56542237 71.6903594,2.56542237 Z M71.6709642,2.87905313 C71.5416631,2.87905313 71.4543849,2.88735024 71.3832693,2.8989662 L71.3832693,3.75356854 L71.6709642,3.75356854 C71.9990657,3.75356854 72.277063,3.63409016 72.277063,3.32211882 C72.277063,3.10141569 72.1186692,2.87905313 71.6709642,2.87905313 Z" id="EFX_Logo"></path>
            </g>
        </g>
    </g>
</svg>