<svg xmlns="http://www.w3.org/2000/svg" viewBox="0 0 137.5 117.5"><defs><style>.cls-1,.cls-2{fill:none;stroke:#000;stroke-linejoin:round;stroke-width:2.5px;}.cls-2{stroke-linecap:round;}</style></defs><g id="Layer_2" data-name="Layer 2"><g id="Security_Fraud" data-name="Security / Fraud"><line class="cls-1" x1="56.25" y1="116.25" x2="56.25" y2="101.25"/><line class="cls-2" x1="91.25" y1="116.25" x2="46.25" y2="116.25"/><line class="cls-1" x1="81.25" y1="101.25" x2="81.25" y2="116.25"/><circle class="cls-1" cx="68.75" cy="33.75" r="32.5"/><path class="cls-2" d="M51.25,33.75a17.49,17.49,0,0,1,17.5-17.5"/><path class="cls-1" d="M87.65,60.15,112.2,84.7a5.3,5.3,0,0,0,7.5-7.5L95.15,52.65"/><path class="cls-1" d="M45.33,11.25H6.25a5,5,0,0,0-5,5v80a5,5,0,0,0,5,5h125a5,5,0,0,0,5-5v-80a5,5,0,0,0-5-5H92.17"/><line class="cls-2" x1="63.75" y1="91.25" x2="73.75" y2="91.25"/></g></g></svg>