<?xml version="1.0" encoding="UTF-8" standalone="no"?><!DOCTYPE svg PUBLIC "-//W3C//DTD SVG 1.1//EN" "http://www.w3.org/Graphics/SVG/1.1/DTD/svg11.dtd"><svg width="100%" height="100%" viewBox="0 0 1083 75" version="1.1" xmlns="http://www.w3.org/2000/svg" xmlns:xlink="http://www.w3.org/1999/xlink" xml:space="preserve" xmlns:serif="http://www.serif.com/" style="fill-rule:evenodd;clip-rule:evenodd;stroke-linejoin:round;stroke-miterlimit:1.41421;"><path d="M0,12.229l21.009,0c9.532,0 14.7,5.303 14.7,14.162c0,8.86 -5.168,14.232 -14.7,14.166l-14.631,0l0,19.597l-6.378,0l0,-47.925Zm6.378,22.956l12.485,0c7.181,0.066 10.468,-3.087 10.468,-8.794c0,-5.706 -3.287,-8.793 -10.468,-8.793l-12.485,0l0,17.587Z" style="fill:#ffffff;fill-rule:nonzero;"/><path d="M56.104,24.647c11.006,0 16.844,7.987 16.844,18.19c0,10.135 -5.838,18.122 -16.844,18.122c-11.009,0 -16.847,-7.987 -16.847,-18.122c0,-10.203 5.838,-18.19 16.847,-18.19m0,31.278c5.975,0 10.806,-4.697 10.806,-13.088c0,-8.456 -4.831,-13.156 -10.806,-13.156c-5.975,0 -10.809,4.7 -10.809,13.156c0,8.391 4.834,13.088 10.809,13.088" style="fill:#ffffff;fill-rule:nonzero;"/><path d="M112.674,60.154l-6.041,0l-7.047,-27.587l-0.134,0l-6.984,27.587l-6.172,0l-11.144,-34.7l6.312,0l7.854,28.391l0.134,0l6.978,-28.391l6.244,0l7.247,28.391l0.134,0l7.788,-28.391l5.906,0l-11.075,34.7Z" style="fill:#ffffff;fill-rule:nonzero;"/><path d="M157.161,49.147c-1.544,7.65 -7.047,11.812 -14.834,11.812c-11.075,0 -16.31,-7.65 -16.644,-18.256c0,-10.403 6.844,-18.056 16.309,-18.056c12.281,0 16.044,11.478 15.703,19.869l-25.975,0c-0.2,6.04 3.222,11.409 10.81,11.409c4.697,0 7.987,-2.281 8.99,-6.778l5.641,0Zm-5.503,-9.666c-0.272,-5.437 -4.363,-9.8 -10.003,-9.8c-5.972,0 -9.528,4.497 -9.935,9.8l19.938,0Z" style="fill:#ffffff;fill-rule:nonzero;"/><path d="M163.393,25.453l5.369,0l0,7.315l0.135,0c2.753,-5.571 6.575,-8.321 12.753,-8.121l0,6.04c-9.194,0 -12.55,5.235 -12.55,14.028l0,15.438l-5.707,0l0,-34.7Z" style="fill:#ffffff;fill-rule:nonzero;"/><path d="M191.978,19.21l-5.706,0l0,-6.982l5.706,0l0,6.982Zm-5.703,6.243l5.706,0l0,34.7l-5.706,0l0,-34.7Z" style="fill:#ffffff;fill-rule:nonzero;"/><path d="M199.427,25.453l5.369,0l0,5.503l0.134,0c2.419,-4.297 6.31,-6.309 11.275,-6.309c9.132,0 11.95,5.234 11.95,12.687l0,22.819l-5.706,0l0,-23.491c0,-4.228 -2.681,-6.981 -7.047,-6.981c-6.912,0 -10.269,4.631 -10.269,10.875l0,19.597l-5.706,0l0,-34.7Z" style="fill:#ffffff;fill-rule:nonzero;"/><path d="M266.401,57.2c0,11.278 -5.168,17.05 -16.109,17.05c-6.509,0 -14.028,-2.616 -14.366,-10.203l5.71,0c0.265,4.162 5.234,5.637 8.99,5.637c7.453,0 10.407,-5.368 10.407,-13.153l0,-2.284l-0.135,0c-1.878,4.228 -6.444,6.309 -10.806,6.309c-10.338,0 -15.503,-8.122 -15.503,-17.584c0,-8.191 4.025,-18.325 16.037,-18.325c4.366,0 8.257,1.947 10.341,5.772l0.066,0l0,-4.966l5.368,0l0,31.747Zm-5.64,-15.1c0,-6.109 -2.682,-12.419 -9.863,-12.419c-7.319,0 -10.272,5.975 -10.272,12.619c0,6.244 2.285,13.225 9.8,13.225c7.519,0 10.335,-6.916 10.335,-13.425" style="fill:#ffffff;fill-rule:nonzero;"/><path d="M296.527,25.453l6.912,0l0,5.034l-6.912,0l0,21.544c0,2.619 0.734,3.087 4.297,3.087l2.615,0l0,5.035l-4.365,0c-5.903,0 -8.256,-1.206 -8.256,-7.585l0,-22.081l-5.904,0l0,-5.034l5.904,0l0,-10.403l5.709,0l0,10.403Z" style="fill:#ffffff;fill-rule:nonzero;"/><path d="M310.346,12.229l5.706,0l0,18.325l0.135,0c1.878,-4.163 6.778,-5.906 10.937,-5.906c9.131,0 11.95,5.234 11.95,12.687l0,22.819l-5.706,0l0,-23.491c0,-4.228 -2.681,-6.981 -7.047,-6.981c-6.913,0 -10.269,4.631 -10.269,10.875l0,19.597l-5.706,0l0,-47.925Z" style="fill:#ffffff;fill-rule:nonzero;"/><path d="M376.582,49.147c-1.544,7.65 -7.047,11.812 -14.835,11.812c-11.075,0 -16.309,-7.65 -16.644,-18.256c0,-10.403 6.844,-18.056 16.31,-18.056c12.281,0 16.044,11.478 15.703,19.869l-25.975,0c-0.2,6.04 3.222,11.409 10.809,11.409c4.697,0 7.988,-2.281 8.991,-6.778l5.641,0Zm-5.507,-9.666c-0.268,-5.437 -4.359,-9.8 -10,-9.8c-5.972,0 -9.528,4.497 -9.934,9.8l19.934,0Z" style="fill:#ffffff;fill-rule:nonzero;"/><path d="M439.191,60.154l-6.644,0l-10.94,-40.272l-0.135,0l-11.075,40.272l-6.647,0l-12.281,-47.925l6.509,0l9.397,39.872l0.135,0l10.74,-39.872l6.913,0l10.606,39.872l0.134,0l9.732,-39.872l6.378,0l-12.822,47.925Z" style="fill:#ffffff;fill-rule:nonzero;"/><path d="M468.242,24.647c11.006,0 16.844,7.987 16.844,18.19c0,10.135 -5.838,18.122 -16.844,18.122c-11.009,0 -16.847,-7.987 -16.847,-18.122c0,-10.203 5.838,-18.19 16.847,-18.19m0,31.278c5.972,0 10.806,-4.697 10.806,-13.088c0,-8.456 -4.834,-13.156 -10.806,-13.156c-5.975,0 -10.809,4.7 -10.809,13.156c0,8.391 4.834,13.088 10.809,13.088" style="fill:#ffffff;fill-rule:nonzero;"/><path d="M491.589,25.453l5.368,0l0,7.315l0.135,0c2.75,-5.571 6.575,-8.321 12.753,-8.121l0,6.04c-9.194,0 -12.55,5.235 -12.55,14.028l0,15.438l-5.706,0l0,-34.7Z" style="fill:#ffffff;fill-rule:nonzero;"/><rect x="516.618" y="12.228" width="5.703" height="47.925" style="fill:#ffffff;"/><path d="M561.519,60.154l-5.706,0l0,-4.697l-0.134,0c-1.878,3.825 -6.31,5.503 -11.072,5.503c-10.675,0 -15.975,-8.459 -15.975,-18.256c0,-9.8 5.234,-18.056 15.837,-18.056c3.56,0 8.66,1.34 11.21,5.434l0.134,0l0,-17.853l5.706,0l0,47.925Zm-16.109,-4.228c7.653,0 10.606,-6.578 10.606,-13.091c0,-6.843 -3.087,-13.153 -10.94,-13.153c-7.788,0 -10.407,6.644 -10.407,13.422c0,6.513 3.357,12.822 10.741,12.822" style="fill:#ffffff;fill-rule:nonzero;"/><path d="M618.286,60.154l-6.041,0l-7.047,-27.587l-0.134,0l-6.985,27.587l-6.171,0l-11.144,-34.7l6.312,0l7.853,28.391l0.135,0l6.978,-28.391l6.244,0l7.247,28.391l0.134,0l7.787,-28.391l5.907,0l-11.075,34.7Z" style="fill:#ffffff;fill-rule:nonzero;"/><path d="M640.822,19.21l-5.704,0l0,-6.982l5.704,0l0,6.982Zm-5.707,6.243l5.703,0l0,34.7l-5.703,0l0,-34.7Z" style="fill:#ffffff;fill-rule:nonzero;"/><path d="M658.273,25.453l6.913,0l0,5.034l-6.913,0l0,21.544c0,2.619 0.734,3.087 4.297,3.087l2.616,0l0,5.035l-4.363,0c-5.906,0 -8.259,-1.206 -8.259,-7.585l0,-22.081l-5.903,0l0,-5.034l5.903,0l0,-10.403l5.709,0l0,10.403Z" style="fill:#ffffff;fill-rule:nonzero;"/><path d="M671.488,12.229l5.706,0l0,18.325l0.135,0c1.878,-4.163 6.778,-5.906 10.937,-5.906c9.132,0 11.95,5.234 11.95,12.687l0,22.819l-5.706,0l0,-23.491c0,-4.228 -2.681,-6.981 -7.047,-6.981c-6.912,0 -10.269,4.631 -10.269,10.875l0,19.597l-5.706,0l0,-47.925Z" style="fill:#ffffff;fill-rule:nonzero;"/><path d="M723.355,12.229l6.378,0l0,23.897l24.297,-23.897l8.256,0l-20.203,19.331l21.009,28.594l-8.053,0l-17.319,-24.231l-7.987,7.45l0,16.781l-6.378,0l0,-47.925Z" style="fill:#ffffff;fill-rule:nonzero;"/><path d="M768.18,25.453l5.369,0l0,5.503l0.137,0c2.416,-4.297 6.307,-6.309 11.272,-6.309c9.131,0 11.95,5.234 11.95,12.687l0,22.819l-5.706,0l0,-23.491c0,-4.228 -2.681,-6.981 -7.047,-6.981c-6.912,0 -10.269,4.631 -10.269,10.875l0,19.597l-5.706,0l0,-34.7Z" style="fill:#ffffff;fill-rule:nonzero;"/><path d="M819.785,24.647c11.006,0 16.843,7.987 16.843,18.19c0,10.135 -5.837,18.122 -16.843,18.122c-11.01,0 -16.85,-7.987 -16.85,-18.122c0,-10.203 5.84,-18.19 16.85,-18.19m0,31.278c5.968,0 10.806,-4.697 10.806,-13.088c0,-8.456 -4.838,-13.156 -10.806,-13.156c-5.975,0 -10.81,4.7 -10.81,13.156c0,8.391 4.835,13.088 10.81,13.088" style="fill:#ffffff;fill-rule:nonzero;"/><path d="M876.693,60.154l-6.041,0l-7.047,-27.587l-0.134,0l-6.984,27.587l-6.172,0l-11.144,-34.7l6.312,0l7.854,28.391l0.134,0l6.978,-28.391l6.244,0l7.247,28.391l0.134,0l7.788,-28.391l5.906,0l-11.075,34.7Z" style="fill:#ffffff;fill-rule:nonzero;"/><rect x="894.193" y="12.228" width="5.706" height="47.925" style="fill:#ffffff;"/><path d="M937.686,49.147c-1.544,7.65 -7.047,11.812 -14.834,11.812c-11.075,0 -16.31,-7.65 -16.644,-18.256c0,-10.403 6.844,-18.056 16.309,-18.056c12.281,0 16.044,11.478 15.703,19.869l-25.975,0c-0.2,6.04 3.222,11.409 10.81,11.409c4.697,0 7.987,-2.281 8.993,-6.778l5.638,0Zm-5.503,-9.666c-0.272,-5.437 -4.363,-9.8 -10.003,-9.8c-5.972,0 -9.528,4.497 -9.935,9.8l19.938,0Z" style="fill:#ffffff;fill-rule:nonzero;"/><path d="M976.807,60.154l-5.706,0l0,-4.697l-0.134,0c-1.879,3.825 -6.31,5.503 -11.072,5.503c-10.675,0 -15.975,-8.459 -15.975,-18.256c0,-9.8 5.234,-18.056 15.837,-18.056c3.56,0 8.66,1.34 11.21,5.434l0.134,0l0,-17.853l5.706,0l0,47.925Zm-16.109,-4.228c7.653,0 10.606,-6.578 10.606,-13.091c0,-6.843 -3.087,-13.153 -10.941,-13.153c-7.787,0 -10.406,6.644 -10.406,13.422c0,6.513 3.356,12.822 10.741,12.822" style="fill:#ffffff;fill-rule:nonzero;"/><path d="M1014.85,57.2c0,11.278 -5.169,17.05 -16.109,17.05c-6.51,0 -14.025,-2.616 -14.363,-10.203l5.706,0c0.266,4.162 5.235,5.637 8.991,5.637c7.453,0 10.406,-5.368 10.406,-13.153l0,-2.284l-0.134,0c-1.878,4.228 -6.444,6.309 -10.806,6.309c-10.338,0 -15.503,-8.122 -15.503,-17.584c0,-8.191 4.025,-18.325 16.037,-18.325c4.366,0 8.256,1.947 10.341,5.772l0.065,0l0,-4.966l5.369,0l0,31.747Zm-5.641,-15.1c0,-6.109 -2.681,-12.419 -9.862,-12.419c-7.319,0 -10.272,5.975 -10.272,12.619c0,6.244 2.284,13.225 9.8,13.225c7.519,0 10.334,-6.916 10.334,-13.425" style="fill:#ffffff;fill-rule:nonzero;"/><path d="M1052.7,49.147c-1.544,7.65 -7.047,11.812 -14.835,11.812c-11.075,0 -16.309,-7.65 -16.646,-18.256c0,-10.403 6.846,-18.056 16.312,-18.056c12.281,0 16.044,11.478 15.703,19.869l-25.975,0c-0.2,6.04 3.222,11.409 10.81,11.409c4.696,0 7.987,-2.281 8.99,-6.778l5.641,0Zm-5.503,-9.666c-0.272,-5.437 -4.363,-9.8 -10.003,-9.8c-5.972,0 -9.529,4.497 -9.935,9.8l19.938,0Z" style="fill:#ffffff;fill-rule:nonzero;"/><path d="M1062.65,2.05l-4.806,0l0,13.3l-2.535,0l0,-13.3l-4.803,0l0,-2.05l12.144,0l0,2.05Zm20.009,13.3l-2.534,0l0,-12.816l-0.075,0l-5.031,12.816l-1.6,0l-5.029,-12.816l-0.075,0l0,12.816l-2.534,0l0,-15.35l3.913,0l4.584,11.663l4.506,-11.663l3.875,0l0,15.35Z" style="fill:#ffffff;fill-rule:nonzero;"/></svg>