<svg xmlns="http://www.w3.org/2000/svg" viewBox="0 0 138.82 101.21"><defs><style>.cls-1{fill:none;stroke:#000;stroke-linejoin:round;stroke-width:2.5px;}</style></defs><g id="Layer_2" data-name="Layer 2"><g id="Communications"><path class="cls-1" d="M114.07,15.35h-94a4.71,4.71,0,0,0-4.7,4.7V85.86"/><line class="cls-1" x1="123.47" y1="85.86" x2="123.47" y2="24.75"/><polyline class="cls-1" points="34.16 85.86 67.06 52.96 81.16 67.06 128.17 20.05 137.57 29.45 137.57 1.25 109.36 1.25 118.77 10.65 81.16 48.26 67.06 34.16 15.35 85.86"/><path class="cls-1" d="M1.25,85.86v4.7a9.4,9.4,0,0,0,9.4,9.4H128.17a9.4,9.4,0,0,0,9.4-9.4v-4.7H78.81a4.69,4.69,0,0,1-4.7,4.7h-9.4a4.69,4.69,0,0,1-4.7-4.7Z"/></g></g></svg>