<svg id="Layer_1" data-name="Layer 1" xmlns="http://www.w3.org/2000/svg" viewBox="0 0 120 22.16"><defs><style>.cls-1{fill:#9d232f;fill-rule:evenodd;}</style></defs><title>logo</title><path class="cls-1" d="M29,1.16c3.37.07,8.59.1,7.66,5.32,0,0-.21,1.48-.55,3.08H30.8l10.65,12.6H34.38L29.77,16.7h0a14.18,14.18,0,0,1-4.53.5c-2.8-.1-8,0-7.77-4.8a30.74,30.74,0,0,1,.94-5.47C19.94,1,24.08,1.06,29,1.16Zm16.62.72s-2,8.58-2.4,10.7a1.85,1.85,0,0,0,1.95,1.77s2.47.38,3-1.62L50.6,1.88h6.28S54.5,12.61,54.09,13.94s-2.48,3.12-7.19,3.37a22.94,22.94,0,0,1-3.83-.2l-5.64-6.6s1.51-6.87,2-8.63ZM19,0l-.7,3.38H9.94L9.31,6.21h7.27l-.75,3.35H8.55l-.8,3.65h8.57l-.75,3.56H0L3.83,0H19ZM81.45,1.88l-.71,2.9H73.58L72.9,7.52H79l-.65,2.86h-6l-1.5,6.36H64.59L67.87,1.88H81.45Zm11.7,0,1.51,12.06,5.07-4.6-5-7.46h8l2.41,3.78,3.9-3.78h6.12l-8,6.9,5.19,8h-7.71l-2.6-4.44-4.32,4.44H88.46l-.29-3.25H81.58l-2.23,3.25H75L85.61,1.88Zm-27.63,0L62.11,16.74H56L59.21,1.88ZM28.16,4a3.32,3.32,0,0,0-3.25,2.09,30.67,30.67,0,0,0-1.45,5.67c-.36,2,1.08,2.71,2.48,2.71a3.55,3.55,0,0,0,3.26-2,31.45,31.45,0,0,0,1.45-5.73A2.1,2.1,0,0,0,28.16,4Zm59,1.32L83.7,10.26h4Zm31.12-4A1.69,1.69,0,0,1,120,3.1a1.69,1.69,0,0,1-1.7,1.71,1.71,1.71,0,0,1-1.72-1.69v0a1.71,1.71,0,0,1,1.72-1.71Zm0,.27h-.14a1.42,1.42,0,0,0-1.24,1.44,1.39,1.39,0,1,0,2.77,0,1.42,1.42,0,0,0-1.39-1.45Zm-.09.48a1,1,0,0,1,.6.14.49.49,0,0,1,.18.4.47.47,0,0,1-.38.46v0l.07,0c.13,0,.22.2.25.44a1.28,1.28,0,0,0,.13.47h-.33l0,0a2.12,2.12,0,0,1-.11-.45.35.35,0,0,0-.41-.33H118v.82h-.3V2.19l.12,0a2.5,2.5,0,0,1,.42,0Zm0,.24H118V3h.39c.18,0,.31-.13.31-.31s-.13-.33-.47-.33Z"/></svg>