<svg xmlns="http://www.w3.org/2000/svg" viewBox="0 0 135.15 89.41"><defs><style>.cls-1,.cls-2{fill:none;stroke:#000;stroke-linejoin:round;stroke-width:2.5px;}.cls-2{stroke-linecap:round;}</style></defs><g id="Layer_2" data-name="Layer 2"><g id="Security_Fraud" data-name="Security / Fraud"><path class="cls-1" d="M120.18,42.42H19.55v-32A9.15,9.15,0,0,1,28.7,1.25H133.9Z"/><line class="cls-1" x1="106.46" y1="1.25" x2="92.73" y2="42.42"/><path class="cls-1" d="M47,42.42v18.3a4.58,4.58,0,0,1-4.57,4.57H17.26a6.86,6.86,0,0,0,0,13.72H51.57A13.72,13.72,0,0,0,65.29,65.29V42.42"/><polyline class="cls-1" points="28.7 65.29 28.7 56.14 1.25 56.14 1.25 88.16 28.7 88.16 28.7 79.01"/><line class="cls-1" x1="46.99" y1="60.72" x2="65.29" y2="60.72"/><line class="cls-2" x1="28.7" y1="33.27" x2="28.7" y2="24.12"/><line class="cls-2" x1="37.84" y1="33.27" x2="37.84" y2="24.12"/><line class="cls-2" x1="46.99" y1="33.27" x2="46.99" y2="24.12"/><path class="cls-1" d="M96.72,30.45a11.42,11.42,0,1,0,7.45-20c-.27,0-.52.06-.79.08"/><circle class="cls-1" cx="104.17" cy="21.83" r="2.29"/></g></g></svg>